<svg width="215" height="51" viewBox="0 0 215 51" fill="none" xmlns="http://www.w3.org/2000/svg">
<path d="M14.64 39.824C14.64 41.4454 14.7253 42.768 14.896 43.792C15.0667 44.816 15.408 45.6054 15.92 46.16C16.432 46.7147 17.136 47.0987 18.032 47.312C18.928 47.4827 20.1227 47.568 21.616 47.568V50H0.880005V47.568C2.37334 47.568 3.56801 47.4827 4.464 47.312C5.40267 47.0987 6.12801 46.736 6.64001 46.224C7.152 45.6694 7.49334 44.9227 7.66401 43.984C7.83467 43.0027 7.92 41.7654 7.92 40.272V10.448C7.92 8.82668 7.81334 7.54668 7.60001 6.60802C7.42934 5.62668 7.08801 4.88002 6.576 4.36802C6.10667 3.85602 5.46667 3.53602 4.656 3.40802C3.84534 3.23735 2.8 3.15202 1.52 3.15202V0.720016H20.976V3.15202C19.696 3.15202 18.6507 3.23735 17.84 3.40802C17.0293 3.57868 16.368 3.94135 15.856 4.49602C15.3867 5.05068 15.0667 5.84002 14.896 6.86402C14.7253 7.84535 14.64 9.18935 14.64 10.896V26.704L30.64 7.44002C31.4933 6.37335 31.92 5.54135 31.92 4.94402C31.92 3.74935 30.704 3.15202 28.272 3.15202V0.720016H43.696V3.08802C42.8427 3.08802 42.096 3.15202 41.456 3.28002C40.816 3.36535 40.176 3.57868 39.536 3.92002C38.9387 4.26135 38.2987 4.75202 37.616 5.39202C36.9333 6.03202 36.144 6.86402 35.248 7.88802L23.216 21.776L41.904 44.24C42.9707 45.4774 43.9733 46.352 44.912 46.864C45.8507 47.3334 47.1093 47.568 48.688 47.568V50H29.04V47.568C30.704 47.568 31.8987 47.44 32.624 47.184C33.3493 46.8854 33.712 46.4374 33.712 45.84C33.712 45.4987 33.5413 45.008 33.2 44.368C32.8587 43.728 32.304 42.9387 31.536 42L19.056 26.64L14.64 31.76V39.824Z" fill="black"/>
<path d="M88.067 32.144H70.979C70.2537 33.8934 69.635 35.4507 69.123 36.816C68.611 38.1387 68.1843 39.2907 67.843 40.272C67.5443 41.2534 67.331 42.0854 67.203 42.768C67.075 43.4507 67.011 44.0054 67.011 44.432C67.011 45.6267 67.395 46.4587 68.163 46.928C68.931 47.3547 70.211 47.568 72.003 47.568V50H56.451V47.568C57.4323 47.44 58.2643 47.2694 58.947 47.056C59.6723 46.8427 60.291 46.544 60.803 46.16C61.3577 45.776 61.827 45.2854 62.211 44.688C62.6377 44.048 63.043 43.28 63.427 42.384L80.067 0.720016H82.819L97.347 36.816C98.3283 39.2054 99.1817 41.1254 99.907 42.576C100.632 43.984 101.336 45.0507 102.019 45.776C102.702 46.5014 103.427 46.9707 104.195 47.184C105.006 47.3974 105.966 47.504 107.075 47.504V50H86.211V47.504C88.4723 47.504 90.0297 47.2907 90.883 46.864C91.7363 46.4374 92.163 45.7334 92.163 44.752C92.163 44.3254 92.1417 43.9414 92.099 43.6C92.0563 43.216 91.971 42.8107 91.843 42.384C91.7577 41.9574 91.6083 41.488 91.395 40.976C91.2243 40.4214 90.9897 39.7814 90.691 39.056L88.067 32.144ZM72.259 28.944H86.851L79.747 10.064L72.259 28.944Z" fill="black"/>
<path d="M118.945 34.96H121.312C121.611 36.88 122.166 38.608 122.977 40.144C123.83 41.68 124.875 42.9814 126.113 44.048C127.393 45.1147 128.843 45.9467 130.465 46.544C132.129 47.0987 133.92 47.376 135.84 47.376C138.998 47.376 141.494 46.6294 143.329 45.136C145.163 43.6427 146.081 41.616 146.081 39.056C146.081 37.9894 145.889 37.008 145.505 36.112C145.163 35.216 144.566 34.3627 143.713 33.552C142.859 32.6987 141.707 31.8667 140.257 31.056C138.848 30.2454 137.057 29.3707 134.881 28.432C132.235 27.28 130.017 26.1707 128.225 25.104C126.433 24.0374 125.003 22.928 123.937 21.776C122.87 20.624 122.102 19.408 121.632 18.128C121.206 16.8053 120.993 15.312 120.993 13.648C120.993 11.6854 121.334 9.87202 122.017 8.20802C122.742 6.54402 123.745 5.11468 125.025 3.92002C126.305 2.68268 127.819 1.74402 129.568 1.10402C131.318 0.42135 133.238 0.0800171 135.329 0.0800171C137.206 0.0800171 138.955 0.378684 140.577 0.976017C142.198 1.57335 143.841 2.53335 145.505 3.85602L147.169 0.976017H148.641L149.345 13.712H146.977C145.953 10.2133 144.459 7.61068 142.497 5.90402C140.577 4.19735 138.251 3.34402 135.521 3.34402C132.918 3.34402 130.848 3.98402 129.312 5.26402C127.777 6.54402 127.009 8.27202 127.009 10.448C127.009 11.472 127.179 12.4107 127.521 13.264C127.862 14.0747 128.417 14.864 129.185 15.632C129.953 16.3574 130.955 17.104 132.193 17.872C133.43 18.5974 134.966 19.3654 136.801 20.176C139.958 21.584 142.582 22.9067 144.673 24.144C146.763 25.3387 148.427 26.5547 149.665 27.792C150.902 28.9867 151.777 30.2667 152.289 31.632C152.801 32.9547 153.057 34.448 153.057 36.112C153.057 38.2454 152.63 40.208 151.777 42C150.923 43.792 149.729 45.328 148.193 46.608C146.657 47.888 144.822 48.8907 142.689 49.616C140.555 50.2987 138.208 50.64 135.648 50.64C133.216 50.64 131.019 50.2987 129.057 49.616C127.137 48.9334 125.174 47.7814 123.169 46.16L121.377 49.296H119.905L118.945 34.96Z" fill="black"/>
<path d="M195.737 32.144H178.649C177.924 33.8934 177.305 35.4507 176.793 36.816C176.281 38.1387 175.854 39.2907 175.513 40.272C175.214 41.2534 175.001 42.0854 174.873 42.768C174.745 43.4507 174.681 44.0054 174.681 44.432C174.681 45.6267 175.065 46.4587 175.833 46.928C176.601 47.3547 177.881 47.568 179.673 47.568V50H164.121V47.568C165.102 47.44 165.934 47.2694 166.617 47.056C167.342 46.8427 167.961 46.544 168.473 46.16C169.028 45.776 169.497 45.2854 169.881 44.688C170.308 44.048 170.713 43.28 171.097 42.384L187.737 0.720016H190.489L205.017 36.816C205.998 39.2054 206.852 41.1254 207.577 42.576C208.302 43.984 209.006 45.0507 209.689 45.776C210.372 46.5014 211.097 46.9707 211.865 47.184C212.676 47.3974 213.636 47.504 214.745 47.504V50H193.881V47.504C196.142 47.504 197.7 47.2907 198.553 46.864C199.406 46.4374 199.833 45.7334 199.833 44.752C199.833 44.3254 199.812 43.9414 199.769 43.6C199.726 43.216 199.641 42.8107 199.513 42.384C199.428 41.9574 199.278 41.488 199.065 40.976C198.894 40.4214 198.66 39.7814 198.361 39.056L195.737 32.144ZM179.929 28.944H194.521L187.417 10.064L179.929 28.944Z" fill="black"/>
</svg>
