<?xml version="1.0" encoding="UTF-8"?>
<svg id="Calque_2" data-name="Calque 2" xmlns="http://www.w3.org/2000/svg" viewBox="0 0 24.75 24">
  <defs>
    <style>
      .cls-1 {
        fill: #ff6060;
      }
    </style>
  </defs>
  <g id="Calque_1-2" data-name="Calque 1">
    <path class="cls-1" d="m13.72.84c-.25-.52-.77-.84-1.35-.84s-1.1.33-1.35.84l-3.01,6.2-6.73.99c-.56.08-1.03.48-1.2,1.02-.17.54-.03,1.13.37,1.53l4.88,4.83-1.15,6.83c-.09.56.14,1.13.6,1.47.46.33,1.08.38,1.58.11l6.01-3.21,6.01,3.21c.51.27,1.12.23,1.58-.11.46-.34.7-.9.6-1.47l-1.16-6.83,4.88-4.83c.4-.4.55-.99.37-1.53-.18-.54-.64-.93-1.2-1.02l-6.74-.99L13.72.84Z"/>
  </g>
</svg>